# xmcd
#
# Track frame offsets:
#   150
#   11244
#   31640
#   45653
#   64208
#   82104
#   95623
#   114711
#   126468
#
# Disc length: 1910 seconds
#
# Revision: 0
# Processed by: cddbd v1.4PL0 Copyright (c) Steve Scherf et al.
# Submitted via: uFREEDB 1.6.0
#
DISCID=7a077409
DTITLE=Varios Artistas - Cumpleaños
DYEAR=1999
DGENRE=Blues
TTITLE0=Cumpleaños y Mañanita
TTITLE1=Mañanitas-Mariachi
TTITLE2=Cumpleaño feliz-E. Arvelo
TTITLE3=Cumpleaño feliz- Tanilo Urbina
TTITLE4=Cumpeaño feliz-Diomedes Diaz
TTITLE5=Cumpleaño feliz- Luciana
TTITLE6=Cumpleaño feliz- Nelson Ned
TTITLE7=Cumpleaño feliz- Los diplomaticos
TTITLE8=brindo por tu cumpleaños
EXTD=
EXTT0=
EXTT1=
EXTT2=
EXTT3=
EXTT4=
EXTT5=
EXTT6=
EXTT7=
EXTT8=
PLAYORDER=
